<?xml version="1.0" encoding="utf-8"?>
<!-- Generator: Adobe Illustrator 21.0.0, SVG Export Plug-In . SVG Version: 6.00 Build 0)  -->
<svg version="1.1"
	 id="Layer_1" xmlns:cc="http://creativecommons.org/ns#" xmlns:dc="http://purl.org/dc/elements/1.1/" xmlns:inkscape="http://www.inkscape.org/namespaces/inkscape" xmlns:rdf="http://www.w3.org/1999/02/22-rdf-syntax-ns#" xmlns:sodipodi="http://sodipodi.sourceforge.net/DTD/sodipodi-0.dtd" xmlns:svg="http://www.w3.org/2000/svg"
	 xmlns="http://www.w3.org/2000/svg" xmlns:xlink="http://www.w3.org/1999/xlink" x="0px" y="0px" viewBox="0 0 90 84.1"
	 style="enable-background:new 0 0 90 84.1;" xml:space="preserve">
<g transform="translate(0,-952.36218)">
	<path d="M86.9,952.4c-0.8,0-1.5,0.4-2.1,1c-10.7,11.2-35.2,37.5-47,49.9L23,990.1c-1.2-1.1-3.1-1-4.2,0.2s-1,3.1,0.2,4.2
		c0,0,0,0,0.1,0.1l17,15c1.2,1.1,3,1,4.2-0.2c11.2-11.7,37.9-40.4,49-52c1.2-1.2,1.2-3.1,0-4.2C88.6,952.6,87.7,952.3,86.9,952.4
		L86.9,952.4z M39.6,954.5c-4.4,0.2-8.8,1-13.1,2.6c-21.1,8-31.8,31.7-23.8,52.8c8,21.1,31.7,31.8,52.8,23.8
		c21.1-8,31.8-31.7,23.8-52.8c-0.7-1.5-2.4-2.2-4-1.6c-1.4,0.6-2.1,2.2-1.7,3.7c6.8,18.1-2.2,38.2-20.3,45.1
		c-18.1,6.8-38.2-2.2-45.1-20.3c-6.8-18.1,2.2-38.2,20.3-45.1c11.1-4.2,23.4-2.5,33,4.4c1.3,1,3.2,0.8,4.2-0.5
		c1-1.3,0.8-3.2-0.5-4.2c-0.1-0.1-0.1-0.1-0.2-0.2c-7-5.1-15.3-7.7-23.7-7.8C40.8,954.5,40.2,954.4,39.6,954.5z"/>
</g>
</svg>
