<?xml version="1.0" encoding="utf-8"?>
<!-- Generator: Adobe Illustrator 21.0.0, SVG Export Plug-In . SVG Version: 6.00 Build 0)  -->
<svg version="1.1" id="Layer_1" xmlns="http://www.w3.org/2000/svg" xmlns:xlink="http://www.w3.org/1999/xlink" x="0px" y="0px"
	 viewBox="0 0 75.5 75.5" style="enable-background:new 0 0 75.5 75.5;" xml:space="preserve">
<path d="M33.4,75.5c-0.9-0.2-1.8-0.4-2.7-0.6c-15.7-3-28-15.8-30.3-31.6C-2.4,23.5,10.2,5.1,29.9,0.9C51.6-3.8,71.8,10.9,75,31.5
	c3.6,23.5-12.7,40.6-31,43.6c-0.6,0.1-1.3,0.3-1.9,0.4C39.2,75.5,36.3,75.5,33.4,75.5z M70.9,37.8c0-18.3-14.9-33.1-33.2-33
	c-18.3,0-33,14.9-33,33.2c0,18.3,14.9,33,33.2,32.9C56.1,70.8,70.9,55.9,70.9,37.8z"/>
<path d="M37.8,34.4c0.5-0.4,0.9-0.8,1.3-1.2c2.7-2.7,5.4-5.4,8.1-8.1c0.4-0.4,0.7-0.7,1.1-1c1-0.7,2.2-0.6,3,0.3c0.8,0.8,1,2,0.2,3
	c-0.3,0.4-0.7,0.7-1,1.1c-2.7,2.7-5.4,5.4-8.1,8.1c-0.4,0.4-0.8,0.8-1.2,1.3c0.4,0.5,0.8,0.9,1.2,1.3c2.7,2.7,5.3,5.3,8,8
	c0.4,0.4,0.7,0.7,1,1.1c0.6,0.9,0.5,2.1-0.2,2.9c-0.8,0.9-2,1-3,0.4c-0.4-0.3-0.8-0.6-1.1-1c-2.7-2.7-5.3-5.3-8-8
	c-0.4-0.4-0.7-0.9-1.1-1.4c-0.6,0.5-0.9,0.8-1.3,1.2c-2.7,2.7-5.5,5.5-8.2,8.2c-0.3,0.3-0.6,0.6-1,0.9c-1,0.8-2.3,0.7-3.2-0.2
	c-0.8-0.8-0.9-2.2-0.1-3.2c0.3-0.3,0.6-0.6,0.9-1c2.7-2.7,5.3-5.3,8-8c0.4-0.4,0.9-0.7,1.4-1.1c-0.5-0.6-0.8-1-1.2-1.3
	c-2.7-2.7-5.5-5.5-8.2-8.2c-0.4-0.4-0.7-0.7-1-1.1c-0.6-0.9-0.5-2.1,0.3-2.9c0.8-0.8,1.9-1,2.9-0.4c0.4,0.3,0.8,0.6,1.1,1
	c2.7,2.7,5.4,5.4,8.1,8.1C36.9,33.6,37.3,34,37.8,34.4z"/>
</svg>
